<?xml version="1.0" encoding="utf-8"?>
<!-- Generator: Adobe Illustrator 16.0.0, SVG Export Plug-In . SVG Version: 6.00 Build 0)  -->
<!DOCTYPE svg PUBLIC "-//W3C//DTD SVG 1.1//EN" "http://www.w3.org/Graphics/SVG/1.1/DTD/svg11.dtd">
<svg version="1.1" id="レイヤー_2" xmlns="http://www.w3.org/2000/svg" xmlns:xlink="http://www.w3.org/1999/xlink" x="0px"
	 y="0px" width="94.195px" height="96.657px" viewBox="0 0 94.195 96.657" enable-background="new 0 0 94.195 96.657"
	 xml:space="preserve">
<path fill="#E60012" stroke="#000000" stroke-width="1.1964" stroke-linejoin="round" d="M77.72,94.153
	c3.843-1.193,7.429-3.368,10.551-7.171c5.505-6.732,5.454-16.083,5.27-24.35c-0.268-10.172-1.996-20.33-5.275-29.989
	c-2.666-7.718-4.52-16.751-10.002-23.066c-6.876-7.896-20.922-8.979-30.667-8.979c-8.196,0-16.232,1.543-23.88,4.442
	C13.205,9.001,8.28,21.13,6.261,31.186c-0.837,4.215-1.68,8.43-2.648,12.625c-1.805,7.741-2.584,19.638-2.57,22.544
	c0.038,3.994,0.629,11.896,2.473,15.567c0,0,3.757,11.158,13.142,13.136c6.805,1.445,13.707,1.005,20.606,0.64
	c6.903-0.365,13.81,0.171,20.773,0.087C64.871,95.708,71.66,96.064,77.72,94.153z"/>
<path fill="none" stroke="#000000" stroke-width="1.1939" d="M8.336,20.663"/>
<path fill="#E60012" stroke="#000000" stroke-width="1.1939" d="M7.238,21.099C8.849,20.478,9.8,19.925,9.8,19.925
	C13.881,17.89,21.19,9.238,21.19,9.238s-1.308-1.121-4.027-1.658c-3.091-0.621-7.15-0.227-9.097,0.502
	c-3.254,1.212-3.95,2.047-3.95,2.047s-3.76,2.698-3.506,7.081c0,0,0.56,3.267,3.396,4.137C4.005,21.347,5.575,21.845,7.238,21.099z"
	/>
<path fill="#E60012" stroke="#000000" stroke-width="1.1939" d="M84.004,20.706c0.365,0.226,2.637,1.986,5.196,1.498
	c2.615-0.46,3.199-2.131,3.327-3.179c0.104-1.045,1.251-5.312-4.342-9.578c0,0-5.31-3.214-10.189-2.159c0,0-3.956,0.935-5.247,2.426
	c0,0,5.267,6.417,7.365,8.255C82.369,19.866,83.654,20.523,84.004,20.706z"/>
<path fill="#FDE0A5" stroke="#000000" stroke-width="1.1939" d="M22.239,85.425c5.742,1.7,18.985,1.743,24.359,1.711
	c5.446-0.078,21.157,0.108,28.33-4.072c7.265-4.277,10.415-8.443,11.169-16.437c0.796-7.991,0.972-24.678-11.447-41.822
	C61.308,6.462,46.688,8.913,46.688,8.913S28.543,6.891,15.195,31.238c0,0-10.08,15.808-8.201,34.851
	C8.105,74.521,12.129,82.431,22.239,85.425z"/>
<path fill="none" stroke="#000000" stroke-width="1.1939" d="M37.719,15.293c0,0,1.497,1.266,2.437,1.341
	c0.932,0.076,1.812-0.283,1.923-0.352"/>
<path fill="none" stroke="#000000" stroke-width="1.1939" d="M53.408,16.328c0,0,1.635,0.384,2.361,0.317
	c0.727-0.077,2.046-1.027,2.269-1.432"/>
<g>
	<path fill="none" stroke="#000000" stroke-width="1.1939" stroke-linejoin="round" d="M69.027,26.423
		c1.538,0.001,2.976,0.364,4.271,1.161c0.094,0.064,0.455,0.207,0.54,0.338c-0.815-2.178-3.177-3.741-5.993-3.741
		c-3.391,0-6.171,2.249-6.264,5.1c0-0.133,0.636-0.541,0.752-0.631c0.247-0.182,0.519-0.364,0.792-0.545
		c0.456-0.317,0.998-0.591,1.543-0.818c1-0.445,2.18-0.689,3.283-0.816C68.304,26.431,68.666,26.423,69.027,26.423z"/>
	<path fill="#FFFFFF" stroke="#000000" stroke-width="1.1939" d="M69.752,26.425c2.27,0.172,3.813,1.309,4.085,1.497
		c0.182,0.5,0.273,1.034,0.273,1.581c0,2.507-2.088,4.636-4.899,5.181c0,0-2.071,0.184-3.636-0.225
		c-1.586-0.413-4.007-2.696-4.007-4.956c0-0.083,0.012-0.159,0.012-0.223c2.361-2.024,4.268-2.673,7.173-2.855L69.752,26.425z"/>
	<path fill="#005E3C" stroke="#000000" stroke-width="1.1939" d="M70.936,33.142c0.364-0.815,0.179-2.185,0.168-2.586
		c-0.165-1.819-0.717-4.019-0.717-4.019c-0.195-0.065-0.449-0.075-0.635-0.112c-0.087,0-1.181-0.046-2.173,0.134
		c-1.459,0.272-3.054,0.817-3.054,0.817s-0.312,5.991,0.417,6.723c0.18,0.136,0.361,0.268,0.633,0.359
		c0.727,0.272,2.908,0.749,3.636,0.225C69.442,34.511,70.483,34.138,70.936,33.142z"/>
</g>
<g>
	<path fill="none" stroke="#000000" stroke-width="1.1939" stroke-linejoin="round" d="M26.868,26.423
		c-0.228-0.002-0.459,0-0.69,0.002c-2.271,0.172-3.848,1.309-4.085,1.497c0.781-2.178,3.178-3.741,5.997-3.741
		c3.365,0,6.119,2.249,6.261,5.1c-2.397-2.024-4.3-2.673-7.209-2.855C27.05,26.423,26.959,26.423,26.868,26.423z"/>
	<path fill="#FFFFFF" stroke="#000000" stroke-width="1.1939" d="M26.177,26.425c-2.271,0.172-3.848,1.309-4.085,1.497
		c-0.182,0.5-0.282,1.034-0.282,1.581c0,2.507,2.067,4.636,4.87,5.181c0,0,2.057,0.184,3.64-0.225
		c1.588-0.413,4.04-2.696,4.04-4.956c0-0.083-0.003-0.159-0.01-0.223c-2.397-2.024-4.3-2.673-7.209-2.855L26.177,26.425z"/>
	<path fill="#005E3C" stroke="#000000" stroke-width="1.1939" d="M24.956,33.142c-0.37-0.815-0.17-2.185-0.132-2.586
		c0.118-1.819,0.724-4.019,0.724-4.019c0.185-0.065,0.405-0.075,0.63-0.112c0.044,0,1.149-0.046,2.121,0.134
		c1.511,0.272,3.065,0.817,3.065,0.817s0.317,5.991-0.421,6.723c-0.132,0.136-0.352,0.268-0.623,0.359
		c-0.728,0.272-3.044,0.409-3.763,0.137C26.324,34.504,25.404,34.138,24.956,33.142z"/>
</g>
<path fill="#F19EC2" stroke="#000000" stroke-width="1.1939" d="M54.134,31.708c0,3.024-3.087,5.478-6.927,5.478
	c-3.857,0-6.945-2.454-6.945-5.478c0-3.02,3.088-5.477,6.945-5.477C51.047,26.231,54.134,28.688,54.134,31.708z"/>
<path fill="#F8C499" d="M30.087,56.278c0,10.622-4.166,19.186-9.264,19.186c-5.123,0-9.261-8.563-9.261-19.186
	c0-10.56,4.138-19.141,9.261-19.141C25.922,37.137,30.087,45.718,30.087,56.278z"/>
<path fill="#F8C499" d="M83.101,56.457c0,10.173-4.157,18.437-9.262,18.437c-5.086,0-9.262-8.264-9.262-18.437
	c0-10.178,4.176-18.419,9.262-18.419C78.944,38.037,83.101,46.278,83.101,56.457z"/>
<path fill="none" stroke="#000000" stroke-width="1.1939" stroke-linecap="round" d="M19.208,84.791c0,0,9.338-0.356,13.015-5.09
	c2.589-3.362,3.592-9.164,3.907-11.8c0.137-1.183,0.68-8.825,0.68-11.535c0-0.999,0.054-20.044,0.054-21.136
	c0-1.119,0.435-5.261,2.832-7.043c0,0,1.565-0.992,2.517-0.443"/>
<path fill="none" stroke="#000000" stroke-width="1.1939" d="M52.305,27.921c1.194-0.651,2.737,0.312,2.737,0.312
	c2.43,1.736,2.996,6.405,3.186,7.812c0.175,1.091-0.008,20.138,0,21.228c0.084,1.816,0.355,6.778,0.717,8.718
	c0.638,3.631,1.728,9.354,4.725,12.35c3.359,3.369,7.626,4.649,7.626,4.649l3.633,0.804"/>
<path fill="#E60012" stroke="#FFF100" stroke-width="0.3582" stroke-linejoin="round" d="M45.689,3.279c0,0-1.612,1.171-1.703,2.426
	c-0.091,1.156,0.318,1.748,0.999,2.244c0.863,0.66,1.703,0.765,2.158,0.765c0.998,0,1.635,0.104,2.633-0.541
	c0.999-0.619,0.999-1.176,0.999-1.864c0-0.712-0.091-1.129-0.468-1.811c-0.284-0.496-0.652-0.822-0.652-0.822l-0.151,1.828h-0.447
	l-1.187-2.27l-0.03-1.23l-1.257,1.311l-0.644,2.061l-0.137-0.968L45.689,3.279z"/>
<path fill="none" stroke="#FFFFFF" stroke-width="1.1939" stroke-linecap="round" stroke-linejoin="round" d="M9.628,10.081
	c0,0-5.495,1.385-6.531,5.226"/>
<path fill="none" stroke="#FFFFFF" stroke-width="1.1939" stroke-linecap="round" stroke-linejoin="round" d="M76.575,10.088
	c0,0,3.4-1.738,6.708-0.232"/>
<path fill="#FFFFFF" d="M48.233,29.375c0,0.771-0.957,1.385-2.112,1.385c-1.181,0-2.134-0.615-2.134-1.385
	c0-0.736,0.954-1.363,2.134-1.363C47.276,28.012,48.233,28.639,48.233,29.375z"/>
<path fill="#FFF100" d="M45.38,5.863c0,0-0.213,0.628-0.058,0.977c0.163,0.401,0.843,1.017,1.276,1.151
	c0.545,0.143,1.625,0.096,1.725,0.074c0.671-0.117,0.947-0.325,1.181-0.733c0.183-0.342-0.182-1.338-0.182-1.338L48.704,6.84
	c0,0-0.562-0.274-0.768-0.977c-0.248-0.692-0.34-1.574-0.34-1.574s-1.008,0.604-1.008,1.574c0,0.977,0.281,1.225,0.463,1.425
	c0.167,0.204-0.182,0.204-0.463-0.053c-0.324-0.243-0.514-0.619-0.768-1.099c0,0-0.245-0.369-0.292-0.5
	C45.485,5.512,45.38,5.863,45.38,5.863z"/>
<path fill="#FFFFFF" d="M68.208,28.683c0,0.822-0.638,1.475-1.466,1.475c-0.834,0-1.529-0.653-1.529-1.475
	c0-0.833,0.695-1.493,1.529-1.493C67.571,27.19,68.208,27.85,68.208,28.683z"/>
<path fill="#FFFFFF" d="M70.39,32.886c0,0.529-0.431,0.979-0.939,0.979c-0.517,0-0.969-0.45-0.969-0.979
	c0-0.519,0.452-0.969,0.969-0.969C69.959,31.917,70.39,32.367,70.39,32.886z"/>
<path fill="#FFFFFF" d="M28.531,28.408c0,0.788-0.664,1.461-1.474,1.461c-0.79,0-1.459-0.673-1.459-1.461
	c0-0.808,0.669-1.475,1.459-1.475C27.868,26.934,28.531,27.6,28.531,28.408z"/>
<path fill="#FFFFFF" d="M27.588,33.147c0,0.586-0.49,1.068-1.061,1.068c-0.574,0-1.063-0.482-1.063-1.068
	c0-0.564,0.489-1.049,1.063-1.049C27.098,32.098,27.588,32.583,27.588,33.147z"/>
<path fill="#D3E6F6" d="M78.016,36.274c0,2.178-1.734,3.934-3.907,3.934c-2.177,0-3.986-1.756-3.986-3.934
	c0-2.179,1.81-3.949,3.986-3.949C76.282,32.325,78.016,34.095,78.016,36.274z"/>
<path fill="#D3E6F6" d="M85.816,48.375c0,1.271-1.081,2.361-2.421,2.361c-1.293,0-2.378-1.09-2.378-2.361
	c0-1.34,1.085-2.386,2.378-2.386C84.735,45.988,85.816,47.034,85.816,48.375z"/>
<path fill="none" stroke="#000000" stroke-width="1.1939" stroke-linecap="round" d="M42.652,80.028c1.967-0.687,2.651-0.135,3.69,0
	c1.029,0.129,1.502,0.321,3.545,0.004c2.068-0.329,3.248-0.416,4.521,0.125"/>
</svg>
