<?xml version="1.0" encoding="utf-8"?>
<!-- Generator: Adobe Illustrator 16.0.0, SVG Export Plug-In . SVG Version: 6.00 Build 0)  -->
<!DOCTYPE svg PUBLIC "-//W3C//DTD SVG 1.1//EN" "http://www.w3.org/Graphics/SVG/1.1/DTD/svg11.dtd">
<svg version="1.1" id="レイヤー_2" xmlns="http://www.w3.org/2000/svg" xmlns:xlink="http://www.w3.org/1999/xlink" x="0px"
	 y="0px" width="272.654px" height="279.81px" viewBox="0 0 272.654 279.81" enable-background="new 0 0 272.654 279.81"
	 xml:space="preserve">
<path fill="#E60012" stroke="#000000" stroke-width="3.4631" stroke-linejoin="round" d="M224.942,272.576
	c11.203-3.538,21.538-9.766,30.521-20.738c15.99-19.53,15.861-46.557,15.279-70.572c-0.71-29.474-5.748-58.84-15.293-86.744
	c-7.658-22.384-12.975-48.521-28.932-66.82C206.594,4.848,166.021,1.731,137.793,1.731c-23.767,0-46.975,4.461-69.148,12.839
	C38.243,26.06,23.97,61.161,18.142,90.244c-2.446,12.202-4.868,24.419-7.688,36.54c-5.218,22.428-7.48,56.866-7.415,65.245
	c0.093,11.536,1.806,34.449,7.138,45.122c0,0,10.891,32.322,38.069,38.045c19.678,4.142,39.682,2.909,59.601,1.853
	c20.051-1.059,40.036,0.467,60.088,0.249C187.831,277.08,207.446,278.108,224.942,272.576z"/>
<path fill="none" stroke="#000000" stroke-width="3.4559" d="M24.121,59.829"/>
<path fill="#E60012" stroke="#000000" stroke-width="3.4559" d="M20.95,61.049c4.682-1.768,7.435-3.395,7.435-3.395
	c11.787-5.867,32.942-30.918,32.942-30.918s-3.748-3.258-11.626-4.815c-8.943-1.77-20.724-0.657-26.363,1.454
	c-9.395,3.515-11.433,5.943-11.433,5.943S1.036,37.12,1.763,49.827c0,0,1.617,9.444,9.844,11.981
	C11.606,61.808,16.136,63.251,20.95,61.049z"/>
<path fill="#E60012" stroke="#000000" stroke-width="3.4559" d="M243.109,59.954c1.062,0.638,7.691,5.708,15.159,4.336
	c7.467-1.375,9.228-6.169,9.528-9.218c0.302-3.043,3.659-15.391-12.499-27.736c0,0-15.392-9.294-29.563-6.249
	c0,0-11.354,2.707-15.156,7.007c0,0,15.233,18.603,21.396,23.897C238.374,57.489,242.203,59.408,243.109,59.954z"/>
<path fill="#FDE0A5" stroke="#000000" stroke-width="3.4559" d="M64.404,247.272c16.593,4.89,54.958,5.101,70.563,4.902
	c15.605-0.204,61.195,0.404,81.875-11.755c21.123-12.425,30.177-24.374,32.42-47.623c2.231-23.108,2.752-71.367-33.238-120.992
	C177.52,18.708,135.17,25.802,135.17,25.802s-52.566-5.873-91.196,64.651c0,0-29.175,45.749-23.709,100.926
	C23.457,215.643,35.124,238.643,64.404,247.272z"/>
<path fill="none" stroke="#000000" stroke-width="3.4559" d="M109.159,44.248c0,0,4.324,3.667,7.07,3.899
	c2.738,0.224,5.254-0.803,5.598-1.035"/>
<path fill="none" stroke="#000000" stroke-width="3.4559" d="M154.669,47.249c0,0,4.684,1.144,6.744,0.915
	c2.056-0.227,5.941-2.974,6.513-4.115"/>
<g>
	<path fill="none" stroke="#000000" stroke-width="3.4559" stroke-linejoin="round" d="M199.835,76.481
		c4.361,0.018,8.549,1.062,12.391,3.35c0.294,0.174,1.322,0.636,1.448,0.98c-2.29-6.277-9.194-10.836-17.349-10.836
		c-9.771,0-17.72,6.549-18.12,14.754c0.019-0.381,1.931-1.53,2.271-1.786c0.732-0.553,1.479-1.083,2.249-1.583
		c1.4-0.908,2.87-1.722,4.408-2.375c3.011-1.274,6.383-2.028,9.629-2.353C197.795,76.528,198.819,76.477,199.835,76.481z"/>
	<path fill="#FFFFFF" stroke="#000000" stroke-width="3.4559" d="M201.858,76.515c6.572,0.446,11.091,3.736,11.815,4.296
		c0.525,1.439,0.812,2.974,0.812,4.557c0,7.315-6.02,13.42-14.081,14.996c0,0-6.003,0.582-10.59-0.637
		c-4.586-1.214-11.652-7.802-11.652-14.359c0-0.215,0.031-0.422,0.042-0.639c6.93-5.828,12.391-7.69,20.822-8.228L201.858,76.515z"
		/>
	<path fill="#005E3C" stroke="#000000" stroke-width="3.4559" d="M205.392,95.939c1.068-2.337,0.446-6.359,0.374-7.465
		c-0.345-5.316-2.087-11.668-2.087-11.668c-0.546-0.154-1.168-0.235-1.82-0.29c-0.127-0.008-3.373-0.159-6.159,0.349
		c-4.351,0.787-8.901,2.363-8.901,2.363s-0.909,17.335,1.267,19.508c0.391,0.394,1.003,0.72,1.751,0.993
		c2.141,0.783,8.48,2.181,10.59,0.637C201.006,99.922,204.095,98.782,205.392,95.939z"/>
</g>
<g>
	<path fill="none" stroke="#000000" stroke-width="3.4559" stroke-linejoin="round" d="M77.778,76.468
		c-0.674-0.015-1.349-0.005-2.022,0.047c-6.572,0.446-11.092,3.736-11.819,4.296c2.291-6.277,9.195-10.836,17.352-10.836
		c9.775,0,17.722,6.549,18.123,14.754c-6.93-5.828-12.391-7.69-20.823-8.228C78.318,76.481,78.05,76.475,77.778,76.468z"/>
	<path fill="#FFFFFF" stroke="#000000" stroke-width="3.4559" d="M75.755,76.515c-6.572,0.446-11.092,3.736-11.819,4.296
		c-0.525,1.439-0.811,2.974-0.811,4.557c0,7.315,6.022,13.42,14.084,14.996c0,0,6.004,0.582,10.59-0.637
		c4.586-1.214,11.652-7.802,11.652-14.359c0-0.215-0.028-0.422-0.041-0.639c-6.93-5.828-12.391-7.69-20.823-8.228L75.755,76.515z"/>
	<path fill="#005E3C" stroke="#000000" stroke-width="3.4559" d="M72.222,95.939c-1.07-2.337-0.446-6.359-0.375-7.465
		c0.347-5.316,2.089-11.668,2.089-11.668c0.545-0.154,1.168-0.235,1.819-0.29c0.128-0.008,3.376-0.159,6.161,0.349
		c4.35,0.787,8.899,2.363,8.899,2.363s0.913,17.335-1.264,19.508c-0.39,0.394-1.003,0.72-1.751,0.993
		c-2.137,0.783-8.847,1.229-10.896,0.41C76.215,99.862,73.521,98.782,72.222,95.939z"/>
</g>
<path fill="#F19EC2" stroke="#000000" stroke-width="3.4559" d="M156.687,91.784c0,8.778-8.983,15.887-20.071,15.887
	c-11.09,0-20.08-7.109-20.08-15.887c0-8.772,8.99-15.885,20.08-15.885C147.703,75.899,156.687,83.012,156.687,91.784z"/>
<path fill="#F8C499" d="M87.068,162.984c0,30.647-12.002,55.491-26.804,55.491c-14.803,0-26.803-24.844-26.803-55.491
	c0-30.653,12-55.498,26.803-55.498C75.065,107.486,87.068,132.331,87.068,162.984z"/>
<path fill="#F8C499" d="M240.58,163.45c0,29.479-12.006,53.373-26.809,53.373c-14.8,0-26.798-23.894-26.798-53.373
	c0-29.479,11.998-53.377,26.798-53.377C228.574,110.072,240.58,133.971,240.58,163.45z"/>
<path fill="none" stroke="#000000" stroke-width="3.4559" stroke-linecap="round" d="M55.62,245.452c0,0,27-1,37.632-14.81
	c7.497-9.737,10.461-26.391,11.349-34.04c0.403-3.473,1.926-25.658,1.926-33.4c0-2.897,0.217-58.033,0.217-61.245
	c0-3.209,1.209-15.181,8.166-20.398c0,0,4.522-2.853,7.249-1.227"/>
<path fill="none" stroke="#000000" stroke-width="3.4559" d="M151.349,80.822c3.563-1.907,8.02,0.876,8.02,0.876
	c6.955,5.078,8.619,18.543,9.26,22.614c0.501,3.172-0.106,58.315,0,61.455c0.179,5.318,0.912,19.618,1.925,25.264
	c1.884,10.441,5.042,27.048,13.703,35.761c9.729,9.792,22.056,13.493,22.056,13.493l10.54,2.311"/>
<path fill="#E60012" stroke="#FFF100" stroke-width="1.0368" stroke-linejoin="round" d="M132.258,9.497c0,0-4.69,3.369-4.939,7.006
	c-0.233,3.368,0.965,5.079,2.871,6.504c2.558,1.902,5.02,2.196,6.271,2.196c2.891,0,4.677,0.331,7.683-1.553
	c2.83-1.779,2.876-3.388,2.858-5.406c-0.013-2.035-0.316-3.252-1.437-5.23c-0.801-1.422-1.857-2.39-1.857-2.39l-0.377,5.313h-1.254
	l-3.502-6.566l-0.123-3.568l-3.666,3.779l-1.841,5.979l-0.376-2.812L132.258,9.497z"/>
<path fill="none" stroke="#FFFFFF" stroke-width="3.4559" stroke-linecap="round" stroke-linejoin="round" d="M27.885,29.171
	c0,0-15.903,4.008-18.909,15.149"/>
<path fill="none" stroke="#FFFFFF" stroke-width="3.4559" stroke-linecap="round" stroke-linejoin="round" d="M221.729,29.209
	c0,0,9.771-5.064,19.372-0.686"/>
<path fill="#FFFFFF" d="M139.594,85.057c0,2.197-2.738,3.974-6.127,3.974c-3.379,0-6.12-1.777-6.12-3.974
	c0-2.188,2.741-3.97,6.12-3.97C136.855,81.086,139.594,82.869,139.594,85.057z"/>
<path fill="#FFF100" d="M131.347,16.969c0,0-0.561,1.798-0.145,2.818c0.477,1.168,2.464,2.944,3.761,3.326
	c1.486,0.441,4.56,0.294,4.987,0.22c1.893-0.339,2.686-0.932,3.372-2.116c0.589-1.007-0.624-3.889-0.624-3.889l-1.662,2.458
	c0,0-1.665-0.792-2.315-2.818c-0.648-2.026-0.867-4.556-0.867-4.556s-3.037,1.734-3.037,4.556c0,2.818,0.794,3.543,1.303,4.122
	c0.506,0.576-0.435,0.576-1.303-0.145c-0.866-0.725-1.446-1.809-2.169-3.182c0,0-0.725-1.084-0.868-1.446
	C131.635,15.955,131.347,16.969,131.347,16.969z"/>
<circle fill="#FFFFFF" cx="193.144" cy="82.997" r="4.313"/>
<circle fill="#FFFFFF" cx="201.014" cy="95.199" r="2.791"/>
<circle fill="#FFFFFF" cx="78.352" cy="82.205" r="4.228"/>
<circle fill="#FFFFFF" cx="76.791" cy="95.976" r="3.047"/>
<circle fill="#D3E6F6" cx="214.457" cy="104.976" r="11.397"/>
<circle fill="#D3E6F6" cx="241.457" cy="139.976" r="6.897"/>
<path fill="none" stroke="#000000" stroke-width="3.4559" stroke-linecap="round" d="M123.457,231.643c5.667-2,7.666-0.333,10.667,0
	s4.333,1.004,10.333,0.004s9.271-1.154,13,0.329"/>
</svg>
